<svg width="278" height="128" viewBox="0 0 278 128" fill="none" xmlns="http://www.w3.org/2000/svg">
<g filter="url(#filter0_d)">
<rect x="4" width="270" height="120" rx="4" fill="#F5F4FA"/>
<rect x="4.5" y="0.5" width="269" height="119" rx="3.5" stroke="black"/>
<rect x="4.5" y="0.5" width="269" height="119" rx="3.5" stroke="url(#paint0_linear)"/>
<rect x="4.5" y="0.5" width="269" height="119" rx="3.5" stroke="url(#paint1_linear)"/>
</g>
<g clip-path="url(#clip0)" filter="url(#filter1_d)">
<path d="M171.316 73.3385L152.847 54.7337L154.897 44.6373C155.425 44.8438 155.988 44.9517 156.556 44.9558H156.57C159.178 44.9866 161.317 42.8974 161.348 40.2893C161.379 37.6812 159.289 35.542 156.681 35.5111C154.073 35.4803 151.934 37.5695 151.903 40.1776C151.896 40.7357 151.989 41.2905 152.176 41.8163L141.326 43.1405L123.628 25.35C123.41 25.1285 123.114 25.0025 122.804 25C122.498 25.0016 122.204 25.1235 121.987 25.3395L118.679 28.6295C118.223 29.0851 118.223 29.8236 118.679 30.2792L120.459 32.0852C113.562 44.7681 115.802 60.4741 125.97 70.7228C126.064 70.8121 126.172 70.8843 126.29 70.9363C126.216 71.3311 126.178 71.7317 126.176 72.1333V85.6667H112.176C108.956 85.6705 106.346 88.28 106.342 91.5V93.8333C106.342 94.4776 106.865 95 107.509 95H161.176C161.82 95 162.342 94.4776 162.342 93.8333V91.5C162.338 88.28 159.729 85.6705 156.509 85.6667H142.509V79.6688C144.702 80.1288 146.937 80.3633 149.178 80.3688C154.555 80.363 159.846 79.0225 164.578 76.4675L166.367 78.2677C166.584 78.4892 166.881 78.6152 167.191 78.6177C167.497 78.6161 167.79 78.4941 168.008 78.2782L171.316 74.9882C171.772 74.5326 171.772 73.7941 171.316 73.3385ZM154.925 38.6348C155.838 37.726 157.316 37.7301 158.224 38.6437C159.133 39.5574 159.129 41.0348 158.215 41.9435C157.778 42.3785 157.186 42.6226 156.569 42.6225H156.562C155.274 42.6158 154.234 41.5658 154.241 40.2771C154.244 39.6602 154.492 39.0699 154.929 38.6348H154.925ZM152.178 46.301L150.869 52.7445L148.298 50.158L152.178 46.301ZM150.853 44.3282L146.653 48.5037L143.404 45.237L150.853 44.3282ZM156.509 88C158.442 88 160.009 89.567 160.009 91.5V92.6667H108.676V91.5C108.676 89.567 110.243 88 112.176 88H156.509ZM140.176 83.3333V85.6667H128.509V83.3333H140.176ZM128.509 81V72.1333C128.509 69.303 131.126 67 134.342 67C137.559 67 140.176 69.303 140.176 72.1333V81H128.509ZM142.509 77.29V72.1333C142.509 68.0162 138.846 64.6667 134.342 64.6667C131.431 64.622 128.708 66.1041 127.165 68.5738C118.289 59.2249 116.29 45.2875 122.18 33.8207L162.872 74.7455C156.589 77.9419 149.386 78.8418 142.509 77.29ZM167.204 75.7943L165.56 74.1412L122.792 31.1157L121.141 29.4613L122.792 27.8163L140.15 45.272C140.158 45.272 140.163 45.2872 140.171 45.293L168.859 74.1493L167.204 75.7943Z" fill="#212121"/>
<path d="M134.353 69.3333H134.342C132.409 69.3304 130.84 70.895 130.837 72.8281C130.834 74.7611 132.399 76.3304 134.332 76.3333H134.342C136.275 76.3362 137.845 74.7716 137.847 72.8386C137.85 70.9055 136.286 69.3362 134.353 69.3333ZM135.169 73.6605C134.95 73.8789 134.652 74.0012 134.342 74C133.698 73.9966 133.178 73.4716 133.182 72.8273C133.183 72.5189 133.307 72.2237 133.526 72.0062C133.743 71.7902 134.036 71.6683 134.342 71.6667C134.987 71.67 135.506 72.195 135.503 72.8393C135.501 73.1477 135.377 73.4429 135.159 73.6605H135.169Z" fill="#2196F3"/>
</g>
<defs>
<filter id="filter0_d" x="0" y="0" width="278" height="128" filterUnits="userSpaceOnUse" color-interpolation-filters="sRGB">
<feFlood flood-opacity="0" result="BackgroundImageFix"/>
<feColorMatrix in="SourceAlpha" type="matrix" values="0 0 0 0 0 0 0 0 0 0 0 0 0 0 0 0 0 0 127 0"/>
<feOffset dy="4"/>
<feGaussianBlur stdDeviation="2"/>
<feColorMatrix type="matrix" values="0 0 0 0 0 0 0 0 0 0 0 0 0 0 0 0 0 0 0.25 0"/>
<feBlend mode="normal" in2="BackgroundImageFix" result="effect1_dropShadow"/>
<feBlend mode="normal" in="SourceGraphic" in2="effect1_dropShadow" result="shape"/>
</filter>
<filter id="filter1_d" x="100" y="25" width="78" height="78" filterUnits="userSpaceOnUse" color-interpolation-filters="sRGB">
<feFlood flood-opacity="0" result="BackgroundImageFix"/>
<feColorMatrix in="SourceAlpha" type="matrix" values="0 0 0 0 0 0 0 0 0 0 0 0 0 0 0 0 0 0 127 0"/>
<feOffset dy="4"/>
<feGaussianBlur stdDeviation="2"/>
<feColorMatrix type="matrix" values="0 0 0 0 0 0 0 0 0 0 0 0 0 0 0 0 0 0 0.25 0"/>
<feBlend mode="normal" in2="BackgroundImageFix" result="effect1_dropShadow"/>
<feBlend mode="normal" in="SourceGraphic" in2="effect1_dropShadow" result="shape"/>
</filter>
<linearGradient id="paint0_linear" x1="139" y1="0" x2="139" y2="120" gradientUnits="userSpaceOnUse">
<stop stop-color="white"/>
<stop offset="1" stop-color="white" stop-opacity="0"/>
</linearGradient>
<linearGradient id="paint1_linear" x1="139" y1="0" x2="139" y2="120" gradientUnits="userSpaceOnUse">
<stop stop-color="white"/>
<stop offset="1" stop-color="white" stop-opacity="0"/>
</linearGradient>
<clipPath id="clip0">
<rect width="70" height="70" fill="white" transform="translate(104 25)"/>
</clipPath>
</defs>
</svg>
